<svg id="visual" viewBox="0 0 900 400" width="900" height="400" xmlns="http://www.w3.org/2000/svg" xmlns:xlink="http://www.w3.org/1999/xlink" version="1.1"><path d="M0 111L9.3 108.5C18.7 106 37.3 101 56.2 102.3C75 103.7 94 111.3 112.8 115.8C131.7 120.3 150.3 121.7 169 118.3C187.7 115 206.3 107 225 99.7C243.7 92.3 262.3 85.7 281.2 87.8C300 90 319 101 337.8 104.3C356.7 107.7 375.3 103.3 394 105C412.7 106.7 431.3 114.3 450 111.8C468.7 109.3 487.3 96.7 506.2 96.2C525 95.7 544 107.3 562.8 107.5C581.7 107.7 600.3 96.3 619 94.8C637.7 93.3 656.3 101.7 675 107.3C693.7 113 712.3 116 731.2 117C750 118 769 117 787.8 117.3C806.7 117.7 825.3 119.3 844 116.8C862.7 114.3 881.3 107.7 890.7 104.3L900 101L900 0L890.7 0C881.3 0 862.7 0 844 0C825.3 0 806.7 0 787.8 0C769 0 750 0 731.2 0C712.3 0 693.7 0 675 0C656.3 0 637.7 0 619 0C600.3 0 581.7 0 562.8 0C544 0 525 0 506.2 0C487.3 0 468.7 0 450 0C431.3 0 412.7 0 394 0C375.3 0 356.7 0 337.8 0C319 0 300 0 281.2 0C262.3 0 243.7 0 225 0C206.3 0 187.7 0 169 0C150.3 0 131.7 0 112.8 0C94 0 75 0 56.2 0C37.3 0 18.7 0 9.3 0L0 0Z" fill="#c62368"></path><path d="M0 87L9.3 89.8C18.7 92.7 37.3 98.3 56.2 94.8C75 91.3 94 78.7 112.8 73.8C131.7 69 150.3 72 169 78C187.7 84 206.3 93 225 93.5C243.7 94 262.3 86 281.2 83.5C300 81 319 84 337.8 88.3C356.7 92.7 375.3 98.3 394 95.2C412.7 92 431.3 80 450 75.5C468.7 71 487.3 74 506.2 75.7C525 77.3 544 77.7 562.8 81.5C581.7 85.3 600.3 92.7 619 90.7C637.7 88.7 656.3 77.3 675 77.2C693.7 77 712.3 88 731.2 93C750 98 769 97 787.8 96.8C806.7 96.7 825.3 97.3 844 98.7C862.7 100 881.3 102 890.7 103L900 104L900 0L890.7 0C881.3 0 862.7 0 844 0C825.3 0 806.7 0 787.8 0C769 0 750 0 731.2 0C712.3 0 693.7 0 675 0C656.3 0 637.7 0 619 0C600.3 0 581.7 0 562.8 0C544 0 525 0 506.2 0C487.3 0 468.7 0 450 0C431.3 0 412.7 0 394 0C375.3 0 356.7 0 337.8 0C319 0 300 0 281.2 0C262.3 0 243.7 0 225 0C206.3 0 187.7 0 169 0C150.3 0 131.7 0 112.8 0C94 0 75 0 56.2 0C37.3 0 18.7 0 9.3 0L0 0Z" fill="#ca3f66"></path><path d="M0 71L9.3 69.5C18.7 68 37.3 65 56.2 62.2C75 59.3 94 56.7 112.8 59.8C131.7 63 150.3 72 169 72.8C187.7 73.7 206.3 66.3 225 64.5C243.7 62.7 262.3 66.3 281.2 65.5C300 64.7 319 59.3 337.8 58.7C356.7 58 375.3 62 394 64.3C412.7 66.7 431.3 67.3 450 66.8C468.7 66.3 487.3 64.7 506.2 67.8C525 71 544 79 562.8 79.2C581.7 79.3 600.3 71.7 619 69C637.7 66.3 656.3 68.7 675 68.8C693.7 69 712.3 67 731.2 67C750 67 769 69 787.8 68C806.7 67 825.3 63 844 60.2C862.7 57.3 881.3 55.7 890.7 54.8L900 54L900 0L890.7 0C881.3 0 862.7 0 844 0C825.3 0 806.7 0 787.8 0C769 0 750 0 731.2 0C712.3 0 693.7 0 675 0C656.3 0 637.7 0 619 0C600.3 0 581.7 0 562.8 0C544 0 525 0 506.2 0C487.3 0 468.7 0 450 0C431.3 0 412.7 0 394 0C375.3 0 356.7 0 337.8 0C319 0 300 0 281.2 0C262.3 0 243.7 0 225 0C206.3 0 187.7 0 169 0C150.3 0 131.7 0 112.8 0C94 0 75 0 56.2 0C37.3 0 18.7 0 9.3 0L0 0Z" fill="#cd5567"></path><path d="M0 41L9.3 45.2C18.7 49.3 37.3 57.7 56.2 59.8C75 62 94 58 112.8 58.3C131.7 58.7 150.3 63.3 169 64.5C187.7 65.7 206.3 63.3 225 58.7C243.7 54 262.3 47 281.2 47.3C300 47.7 319 55.3 337.8 58C356.7 60.7 375.3 58.3 394 55C412.7 51.7 431.3 47.3 450 49.3C468.7 51.3 487.3 59.7 506.2 63.5C525 67.3 544 66.7 562.8 65.3C581.7 64 600.3 62 619 58.2C637.7 54.3 656.3 48.7 675 49C693.7 49.3 712.3 55.7 731.2 56.8C750 58 769 54 787.8 51.5C806.7 49 825.3 48 844 47.8C862.7 47.7 881.3 48.3 890.7 48.7L900 49L900 0L890.7 0C881.3 0 862.7 0 844 0C825.3 0 806.7 0 787.8 0C769 0 750 0 731.2 0C712.3 0 693.7 0 675 0C656.3 0 637.7 0 619 0C600.3 0 581.7 0 562.8 0C544 0 525 0 506.2 0C487.3 0 468.7 0 450 0C431.3 0 412.7 0 394 0C375.3 0 356.7 0 337.8 0C319 0 300 0 281.2 0C262.3 0 243.7 0 225 0C206.3 0 187.7 0 169 0C150.3 0 131.7 0 112.8 0C94 0 75 0 56.2 0C37.3 0 18.7 0 9.3 0L0 0Z" fill="#cf686b"></path><path d="M0 38L9.3 38.8C18.7 39.7 37.3 41.3 56.2 40C75 38.7 94 34.3 112.8 33.7C131.7 33 150.3 36 169 38.5C187.7 41 206.3 43 225 43.8C243.7 44.7 262.3 44.3 281.2 45.2C300 46 319 48 337.8 48C356.7 48 375.3 46 394 43C412.7 40 431.3 36 450 36.3C468.7 36.7 487.3 41.3 506.2 40.8C525 40.3 544 34.7 562.8 32.8C581.7 31 600.3 33 619 35.5C637.7 38 656.3 41 675 39.7C693.7 38.3 712.3 32.7 731.2 33.5C750 34.3 769 41.7 787.8 43.7C806.7 45.7 825.3 42.3 844 39.2C862.7 36 881.3 33 890.7 31.5L900 30L900 0L890.7 0C881.3 0 862.7 0 844 0C825.3 0 806.7 0 787.8 0C769 0 750 0 731.2 0C712.3 0 693.7 0 675 0C656.3 0 637.7 0 619 0C600.3 0 581.7 0 562.8 0C544 0 525 0 506.2 0C487.3 0 468.7 0 450 0C431.3 0 412.7 0 394 0C375.3 0 356.7 0 337.8 0C319 0 300 0 281.2 0C262.3 0 243.7 0 225 0C206.3 0 187.7 0 169 0C150.3 0 131.7 0 112.8 0C94 0 75 0 56.2 0C37.3 0 18.7 0 9.3 0L0 0Z" fill="#cf7a73"></path><path d="M0 21L9.3 21.3C18.7 21.7 37.3 22.3 56.2 21.3C75 20.3 94 17.7 112.8 18.8C131.7 20 150.3 25 169 25.2C187.7 25.3 206.3 20.7 225 20.8C243.7 21 262.3 26 281.2 27.5C300 29 319 27 337.8 24.8C356.7 22.7 375.3 20.3 394 19.7C412.7 19 431.3 20 450 19.3C468.7 18.7 487.3 16.3 506.2 16.3C525 16.3 544 18.7 562.8 20C581.7 21.3 600.3 21.7 619 22C637.7 22.3 656.3 22.7 675 22.8C693.7 23 712.3 23 731.2 23.5C750 24 769 25 787.8 25.7C806.7 26.3 825.3 26.7 844 25.2C862.7 23.7 881.3 20.3 890.7 18.7L900 17L900 0L890.7 0C881.3 0 862.7 0 844 0C825.3 0 806.7 0 787.8 0C769 0 750 0 731.2 0C712.3 0 693.7 0 675 0C656.3 0 637.7 0 619 0C600.3 0 581.7 0 562.8 0C544 0 525 0 506.2 0C487.3 0 468.7 0 450 0C431.3 0 412.7 0 394 0C375.3 0 356.7 0 337.8 0C319 0 300 0 281.2 0C262.3 0 243.7 0 225 0C206.3 0 187.7 0 169 0C150.3 0 131.7 0 112.8 0C94 0 75 0 56.2 0C37.3 0 18.7 0 9.3 0L0 0Z" fill="#cf8b7d"></path></svg>